<?xml version="1.0" encoding="utf-8"?>
<!-- Generator: Adobe Illustrator 19.0.1, SVG Export Plug-In . SVG Version: 6.00 Build 0)  -->
<svg version="1.1" id="Layer_1" xmlns="http://www.w3.org/2000/svg" xmlns:xlink="http://www.w3.org/1999/xlink" x="0px" y="0px"
	 viewBox="0 0 164 170" style="enable-background:new 0 0 164 170;" xml:space="preserve">
<style type="text/css">
	.st0{opacity:0.9;}
	.st1{fill:#EEEEEE;}
	.st2{fill:none;stroke:#EEEEEE;stroke-width:13;stroke-miterlimit:10;}
	.st3{fill:#D44434;}
	.st4{fill:none;stroke:#FFFFFF;stroke-width:13;stroke-miterlimit:10;}
	.st5{opacity:0.31;}
	.st6{fill:#AE362D;}
	.st7{fill:#FFFFFF;}
</style>
<g>
	<g class="st0">
		<circle class="st1" cx="82.5" cy="88.5" r="75"/>
		<circle class="st2" cx="82.5" cy="88.5" r="75"/>
	</g>
	<g>
		<circle class="st3" cx="81.5" cy="81.5" r="75"/>
		<circle class="st4" cx="81.5" cy="81.5" r="75"/>
	</g>
</g>
<g>
	<g class="st5">
		<path class="st6" d="M63.9,100.8H44.6l-5.4,11.3H23.6l32-60.4H69l11.2,60.4H65.4L63.9,100.8z M49.9,89.5h12.5l-2.7-20.8L49.9,89.5
			z"/>
		<path class="st6" d="M134.2,104.6c-2.3,2.7-5.6,4.7-9.9,6.2c-4.3,1.5-9.2,2.1-14.4,2.1c-5.1-0.1-9.3-1.3-12.8-3.8
			c-3.5-2.5-6-6-7.5-10.4c-1.5-4.5-1.9-9.5-1.2-15.1l0.3-2.5c1.3-9.4,4.6-16.8,9.9-22.3s11.8-8.1,19.6-8c6.8,0.1,11.9,1.9,15.6,5.4
			c3.6,3.5,5.6,8.6,6.1,15.2l-13.6,0c-0.2-3.2-1-5.6-2.4-7.1c-1.4-1.5-3.4-2.3-6-2.4c-3.8-0.1-7,1.4-9.5,4.5
			c-2.5,3.1-4.2,7.6-5.1,13.5c-0.8,5-1.1,8.8-0.8,11.6c0.4,6.7,3.4,10,9,10.1c3.4,0.1,6.3-0.8,8.9-2.4l1.9-9.4h-9.8l1.7-10h24
			L134.2,104.6z"/>
	</g>
	<g>
		<g>
			<path class="st7" d="M62.9,93.8H43.6l-5.4,11.3H22.6l32-60.4H68l11.2,60.4H64.4L62.9,93.8z M48.9,82.5h12.5l-2.7-20.8L48.9,82.5z
				"/>
			<path class="st7" d="M133.2,97.6c-2.3,2.7-5.6,4.7-9.9,6.2c-4.3,1.5-9.2,2.1-14.4,2.1c-5.1-0.1-9.3-1.3-12.8-3.8
				c-3.5-2.5-6-6-7.5-10.4c-1.5-4.5-1.9-9.5-1.2-15.1l0.3-2.5c1.3-9.4,4.6-16.8,9.9-22.3s11.8-8.1,19.6-8c6.8,0.1,11.9,1.9,15.6,5.4
				c3.6,3.5,5.6,8.6,6.1,15.2l-13.6,0c-0.2-3.2-1-5.6-2.4-7.1c-1.4-1.5-3.4-2.3-6-2.4c-3.8-0.1-7,1.4-9.5,4.5
				c-2.5,3.1-4.2,7.6-5.1,13.5c-0.8,5-1.1,8.8-0.8,11.6c0.4,6.7,3.4,10,9,10.1c3.4,0.1,6.3-0.8,8.9-2.4l1.9-9.4h-9.8l1.7-10h24
				L133.2,97.6z"/>
		</g>
	</g>
</g>
</svg>
